<?xml version="1.0" encoding="UTF-8"?>
<!-- Created with Inkscape (http://www.inkscape.org/) -->
<svg width="60.975mm" height="85.691mm" version="1.1" viewBox="0 0 60.975 85.691" xmlns="http://www.w3.org/2000/svg">
 <g transform="translate(-84.962 -110.58)">
  <g fill="#358856">
   <path d="m106.96 161.58c20.946-12.093-21.999-30.358-21.999-30.358s1.0535 42.451 21.999 30.358z"/>
   <path d="m122.31 162.4c17.102 17.102 23.63-29.107 23.63-29.107s-40.732 12.005-23.63 29.107z"/>
   <path d="m108.12 153.32c23.362-6.2599-13.393-35.018-13.393-35.018s-9.9696 41.278 13.393 35.018z" display="none"/>
   <path d="m117.82 160.32c24.186-1e-5 -1.2921-49.748-1.2921-49.748s-22.894 49.748 1.2921 49.748z" display="none"/>
   <path d="m122.37 154.14c20.946 12.093 15.291-34.231 15.291-34.231s-36.237 22.138-15.291 34.231z" display="none"/>
  </g>
  <path d="m90.892 157.59 9.8659 38.676h28.021l10.363-38.676z" fill="#b35642"/>
 </g>
</svg>
