<?xml version="1.0" encoding="UTF-8"?>
<svg width=".05in" height=".05in" version="1.2" viewBox="-1 -1 4.8 4.8" xmlns="http://www.w3.org/2000/svg">
 <g stroke-width=".32">
  <rect x="-1" y="-1" width="4.8" height="4.8" rx="1.28" ry="1.28"/>
  <path d="m0.60256 0.66816-0.10816 0.0128-0.05504 0.23904-0.088 0.02496-0.17184-0.17504-0.09952 0.04576 0.02176 0.24416-0.07616 0.0512-0.2176-0.1136-0.08064 0.07456 0.09632 0.2256-0.05696 0.07168-0.2416-0.04064-0.05312 0.09504 0.16128 0.18496-0.032 0.0864-0.24256 0.03616-0.02176 0.10688 0.21056 0.1264-0.00384 0.09184-0.2192 0.1088 0.01248 0.1088 0.23936 0.05472 0.02496 0.08832-0.17504 0.17184 0.04576 0.0992 0.24416-0.02176 0.05056 0.07616-0.11296 0.2176 0.0736 0.08 0.22624-0.09568 0.072 0.05632-0.04128 0.24256 0.09568 0.05312 0.18496-0.16128 0.0864 0.032 0.03552 0.24224 0.10752 0.02144 0.12608-0.21024 0.09152 0.0032 0.10912 0.22016 0.1088-0.01312 0.0544-0.23872 0.08896-0.02528 0.17184 0.17504 0.09856-0.04544-0.02112-0.24448 0.07616-0.0512 0.2176 0.1136 0.08-0.07424-0.09632-0.2256 0.05696-0.072 0.24192 0.04064 0.05376-0.09504-0.16128-0.18496 0.032-0.0864 0.24224-0.0352 0.02112-0.10784-0.21056-0.12608 0.00384-0.09152 0.22016-0.10944-0.01344-0.1088-0.23936-0.05504-0.02432-0.088 0.17504-0.17184-0.04544-0.0992-0.24448 0.02176-0.0512-0.07648 0.1136-0.2176-0.07424-0.08-0.2256 0.09632-0.072-0.05664 0.04064-0.24192-0.09568-0.05376-0.18496 0.16128-0.08544-0.032-0.03648-0.24256-0.10688-0.02112-0.12608 0.21056-0.09184-0.00352zm0.10944 1.0678 0.09856 0.01568 0.0896 0.0448 0.0704 0.07136 0.04576 0.08864 0.01568 0.0992-0.016 0.0992-0.04544 0.08928-0.0704 0.0704-0.0896 0.04576-0.09856 0.01568-0.09888-0.01568-0.0896-0.04576-0.0704-0.0704-0.04576-0.0896-0.01536-0.09856 0.01536-0.0992 0.04576-0.08896 0.0704-0.07136 0.0896-0.0448 0.09888-0.016z" fill="#cc1a00"/>
  <path d="m2.7818 1.3133-0.11808 0.21472-0.08256 0.0064-0.14912-0.19392-0.10944 0.04576 0.03104 0.24256-0.06304 0.05376-0.23488-0.0688-0.06208 0.10048 0.16832 0.17888-0.0192 0.08-0.23072 0.0832 0.00928 0.11744 0.24064 0.04576 0.032 0.07616-0.13824 0.20256 0.0768 0.08928 0.22112-0.10432 0.07072 0.0432 0.00768 0.2448 0.11424 0.02752 0.11744-0.21504 0.0832-0.0064 0.14944 0.19392 0.10944-0.0448-0.03136-0.2432 0.06304-0.05376 0.2352 0.0688 0.06112-0.1008-0.16736-0.17792 0.0192-0.08064 0.2304-0.08256-0.00928-0.1184-0.24032-0.0448-0.032-0.0768 0.13824-0.20256-0.0768-0.0896-0.22144 0.10464-0.0704-0.0432-0.00768-0.24512zm-0.14304 0.58496 0.09824 0.01536 0.06944 0.06944 0.01536 0.09824-0.0448 0.088-0.08832 0.04448-0.09728-0.01504-0.0704-0.07008-0.01472-0.09728 0.04448-0.08832z" fill="#0c3"/>
  <path d="m0.65376-0.67936-0.11744 0.01312-0.0368 0.24192-0.07584 0.03424-0.20672-0.13056-0.08704 0.08 0.11264 0.2176-0.0416 0.07168-0.24416 0.01632-0.02304 0.11552 0.21888 0.11008 0.00928 0.08192-0.1888 0.1568 0.04928 0.10752 0.24128-0.04 0.05632 0.06144-0.0608 0.23744 0.10336 0.05792 0.17184-0.17408 0.08128 0.01664 0.09056 0.22752 0.11744-0.01376 0.0368-0.24192 0.07584-0.03424 0.20672 0.13056 0.08704-0.07936-0.11264-0.2176 0.0416-0.07232 0.24416-0.01568 0.02304-0.11552-0.21888-0.11008-0.00928-0.08256 0.1888-0.15616-0.04928-0.10752-0.24128 0.03936-0.05632-0.06112 0.0608-0.2368-0.10368-0.05856-0.17184 0.17376-0.08128-0.01632-0.09056-0.22752zm0.0768 0.33888 0.23328 0.10784 0.12416 0.22528-0.03104 0.25472-0.17504 0.18816-0.2528 0.0496-0.23296-0.1088-0.12416-0.22496 0.03104-0.25504 0.17504-0.18816 0.2528-0.04864z" fill="#33f"/>
 </g>
</svg>
